<?xml version="1.0" encoding="UTF-8"?>
<svg width="24" height="24" viewBox="0 0 24 24" xmlns="http://www.w3.org/2000/svg">
  <!-- Spiky hair -->
  <path fill="#424242" d="M12 -2l3 6-3-2-3 2z M7 0l2.5 4-2.5-1.5L4 4z M17 0l-2.5 4L17 2.5 19.5 4z"/>
  <!-- Face and mane -->
  <path fill="#424242" d="M12 4C6.48 4 2 7.48 2 13s4.48 10 10 10 10-4.48 10-10S17.52 4 12 4zm0 2c4.41 0 8 3.59 8 8s-3.59 8-8 8-8-3.59-8-8 3.59-8 8-8zm-2.5 5C8.67 11 8 11.67 8 12.5s.67 1.5 1.5 1.5 1.5-.67 1.5-1.5S9.33 11 8.5 11zm5 0c-.83 0-1.5.67-1.5 1.5s.67 1.5 1.5 1.5 1.5-.67 1.5-1.5-.67-1.5-1.5-1.5zm-2.5 4c-1.1 0-2 .9-2 2h4c0-1.1-.9-2-2-2z"/>
</svg> 